<svg viewBox="0 0 64 64" xmlns="http://www.w3.org/2000/svg" role="img" aria-label="Downtime Calculator logo">
  <defs>
    <linearGradient id="dc-bg" x1="0" y1="0" x2="64" y2="64" gradientUnits="userSpaceOnUse">
      <stop offset="0" stop-color="#5E7DF4"/>
      <stop offset="0.55" stop-color="#7651D9"/>
      <stop offset="1" stop-color="#FF7EB5"/>
    </linearGradient>
    <linearGradient id="dc-shine" x1="0" y1="0" x2="0" y2="64" gradientUnits="userSpaceOnUse">
      <stop offset="0" stop-color="#ffffff" stop-opacity="0.55"/>
      <stop offset="0.65" stop-color="#ffffff" stop-opacity="0"/>
    </linearGradient>
    <linearGradient id="dc-arc" x1="20" y1="48" x2="48" y2="20" gradientUnits="userSpaceOnUse">
      <stop offset="0" stop-color="#FFE3B0"/>
      <stop offset="1" stop-color="#FF9447"/>
    </linearGradient>
  </defs>

  <rect x="0" y="0" width="64" height="64" rx="18" fill="url(#dc-bg)"/>
  <rect x="0" y="0" width="64" height="64" rx="18" fill="url(#dc-shine)"/>

  <rect x="28" y="6.5" width="8" height="4.5" rx="1.6" fill="#ffffff" opacity="0.95"/>
  <rect x="29.6" y="3" width="4.8" height="4" rx="1.3" fill="#ffffff" opacity="0.95"/>

  <circle cx="32" cy="36" r="18" fill="rgba(255,255,255,0.16)" stroke="rgba(255,255,255,0.85)" stroke-width="1.6"/>
  <circle cx="32" cy="36" r="14" stroke="#ffffff" stroke-width="2.4" fill="none" opacity="0.95"/>

  <g stroke="#ffffff" stroke-width="2" stroke-linecap="round" opacity="0.9">
    <line x1="32" y1="24" x2="32" y2="27"/>
    <line x1="32" y1="45" x2="32" y2="48"/>
    <line x1="20" y1="36" x2="23" y2="36"/>
    <line x1="41" y1="36" x2="44" y2="36"/>
  </g>

  <path d="M44 40 A14 14 0 0 1 24 44" stroke="url(#dc-arc)" stroke-width="3.4" stroke-linecap="round" fill="none"/>

  <line x1="32" y1="36" x2="32" y2="26.5" stroke="#ffffff" stroke-width="2.6" stroke-linecap="round"/>
  <line x1="32" y1="36" x2="40" y2="44" stroke="#ffffff" stroke-width="3" stroke-linecap="round"/>

  <circle cx="32" cy="36" r="2.8" fill="#ffffff"/>
  <circle cx="32" cy="36" r="1" fill="#7651D9"/>
</svg>
